<mxfile host="app.diagrams.net" modified="2023-05-02T12:03:05.405Z" agent="Mozilla/5.0 (Windows NT 10.0; Win64; x64) AppleWebKit/537.36 (KHTML, like Gecko) Chrome/112.0.0.0 Safari/537.36" etag="Lv8kNL6BEBtXcAZN-7ZC" version="21.2.4">
  <diagram name="Page-1" id="v1nHJ3SM3P8FZso7w3vW">
    <mxGraphModel dx="878" dy="496" grid="1" gridSize="10" guides="1" tooltips="1" connect="1" arrows="1" fold="1" page="1" pageScale="1" pageWidth="850" pageHeight="1100" math="0" shadow="0">
      <root>
        <mxCell id="0" />
        <mxCell id="1" parent="0" />
        <mxCell id="i4NBTATnqHizzivi86ss-3" style="edgeStyle=orthogonalEdgeStyle;rounded=0;orthogonalLoop=1;jettySize=auto;html=1;exitX=0.5;exitY=1;exitDx=0;exitDy=0;" parent="1" source="i4NBTATnqHizzivi86ss-1" edge="1">
          <mxGeometry relative="1" as="geometry">
            <mxPoint x="200" y="240" as="targetPoint" />
          </mxGeometry>
        </mxCell>
        <object label="&lt;b&gt;Splash screen&lt;/b&gt;" id="i4NBTATnqHizzivi86ss-1">
          <mxCell style="rounded=0;whiteSpace=wrap;html=1;textDirection=ltr;fontStyle=0;horizontal=1;" parent="1" vertex="1">
            <mxGeometry x="140" y="70" width="120" height="60" as="geometry" />
          </mxCell>
        </object>
        <mxCell id="p4MyVl_19oYztBwYnWX8-1" value="&lt;b&gt;Sign up page&lt;/b&gt;" style="rounded=0;whiteSpace=wrap;html=1;" vertex="1" parent="1">
          <mxGeometry x="140" y="240" width="120" height="60" as="geometry" />
        </mxCell>
        <mxCell id="p4MyVl_19oYztBwYnWX8-2" value="Home page" style="shape=process;whiteSpace=wrap;html=1;backgroundOutline=1;rounded=0;fontStyle=1" vertex="1" parent="1">
          <mxGeometry x="140" y="410" width="120" height="60" as="geometry" />
        </mxCell>
        <mxCell id="p4MyVl_19oYztBwYnWX8-3" value="" style="endArrow=classic;html=1;rounded=0;entryX=0.5;entryY=0;entryDx=0;entryDy=0;exitX=0.5;exitY=1;exitDx=0;exitDy=0;" edge="1" parent="1" source="p4MyVl_19oYztBwYnWX8-1" target="p4MyVl_19oYztBwYnWX8-2">
          <mxGeometry width="50" height="50" relative="1" as="geometry">
            <mxPoint x="190" y="380" as="sourcePoint" />
            <mxPoint x="240" y="330" as="targetPoint" />
          </mxGeometry>
        </mxCell>
        <mxCell id="p4MyVl_19oYztBwYnWX8-4" value="" style="endArrow=classic;html=1;rounded=0;exitX=1.008;exitY=0.367;exitDx=0;exitDy=0;exitPerimeter=0;entryX=0;entryY=0.5;entryDx=0;entryDy=0;entryPerimeter=0;" edge="1" parent="1" source="p4MyVl_19oYztBwYnWX8-1" target="p4MyVl_19oYztBwYnWX8-5">
          <mxGeometry width="50" height="50" relative="1" as="geometry">
            <mxPoint x="300" y="420" as="sourcePoint" />
            <mxPoint x="490" y="440" as="targetPoint" />
            <Array as="points" />
          </mxGeometry>
        </mxCell>
        <mxCell id="p4MyVl_19oYztBwYnWX8-5" value="" style="shape=cylinder3;whiteSpace=wrap;html=1;boundedLbl=1;backgroundOutline=1;size=15;rounded=0;" vertex="1" parent="1">
          <mxGeometry x="590" y="220" width="60" height="80" as="geometry" />
        </mxCell>
        <mxCell id="p4MyVl_19oYztBwYnWX8-6" value="" style="rhombus;whiteSpace=wrap;html=1;rounded=0;" vertex="1" parent="1">
          <mxGeometry x="160" y="520" width="80" height="80" as="geometry" />
        </mxCell>
        <mxCell id="p4MyVl_19oYztBwYnWX8-7" value="" style="endArrow=classic;html=1;rounded=0;exitX=0.5;exitY=1;exitDx=0;exitDy=0;entryX=0.5;entryY=0;entryDx=0;entryDy=0;" edge="1" parent="1" source="p4MyVl_19oYztBwYnWX8-2" target="p4MyVl_19oYztBwYnWX8-6">
          <mxGeometry width="50" height="50" relative="1" as="geometry">
            <mxPoint x="400" y="580" as="sourcePoint" />
            <mxPoint x="450" y="530" as="targetPoint" />
            <Array as="points" />
          </mxGeometry>
        </mxCell>
        <mxCell id="p4MyVl_19oYztBwYnWX8-9" value="" style="endArrow=classic;html=1;rounded=0;exitX=0.5;exitY=1;exitDx=0;exitDy=0;" edge="1" parent="1" source="p4MyVl_19oYztBwYnWX8-6">
          <mxGeometry width="50" height="50" relative="1" as="geometry">
            <mxPoint x="190" y="640" as="sourcePoint" />
            <mxPoint x="200" y="700" as="targetPoint" />
          </mxGeometry>
        </mxCell>
        <mxCell id="p4MyVl_19oYztBwYnWX8-10" value="Automate tasks" style="shape=process;whiteSpace=wrap;html=1;backgroundOutline=1;rounded=0;fontStyle=1" vertex="1" parent="1">
          <mxGeometry x="140" y="700" width="120" height="60" as="geometry" />
        </mxCell>
        <mxCell id="p4MyVl_19oYztBwYnWX8-11" value="" style="endArrow=classic;html=1;rounded=0;exitX=1;exitY=0.5;exitDx=0;exitDy=0;" edge="1" parent="1" source="p4MyVl_19oYztBwYnWX8-6">
          <mxGeometry width="50" height="50" relative="1" as="geometry">
            <mxPoint x="400" y="580" as="sourcePoint" />
            <mxPoint x="400" y="560" as="targetPoint" />
          </mxGeometry>
        </mxCell>
        <mxCell id="p4MyVl_19oYztBwYnWX8-12" value="Calender" style="shape=process;whiteSpace=wrap;html=1;backgroundOutline=1;rounded=0;fontStyle=1" vertex="1" parent="1">
          <mxGeometry x="400" y="530" width="130" height="60" as="geometry" />
        </mxCell>
        <mxCell id="p4MyVl_19oYztBwYnWX8-13" value="" style="endArrow=classic;html=1;rounded=0;entryX=0.855;entryY=1;entryDx=0;entryDy=-4.35;entryPerimeter=0;" edge="1" parent="1" target="p4MyVl_19oYztBwYnWX8-5">
          <mxGeometry width="50" height="50" relative="1" as="geometry">
            <mxPoint x="260" y="720" as="sourcePoint" />
            <mxPoint x="650" y="260" as="targetPoint" />
            <Array as="points">
              <mxPoint x="640" y="720" />
            </Array>
          </mxGeometry>
        </mxCell>
        <mxCell id="p4MyVl_19oYztBwYnWX8-15" value="" style="endArrow=classic;html=1;rounded=0;entryX=0.333;entryY=1;entryDx=0;entryDy=0;entryPerimeter=0;exitX=1;exitY=0.5;exitDx=0;exitDy=0;" edge="1" parent="1" source="p4MyVl_19oYztBwYnWX8-12" target="p4MyVl_19oYztBwYnWX8-5">
          <mxGeometry width="50" height="50" relative="1" as="geometry">
            <mxPoint x="460" y="510" as="sourcePoint" />
            <mxPoint x="450" y="490" as="targetPoint" />
            <Array as="points">
              <mxPoint x="570" y="560" />
              <mxPoint x="610" y="560" />
            </Array>
          </mxGeometry>
        </mxCell>
        <mxCell id="p4MyVl_19oYztBwYnWX8-16" value="Remainder" style="shape=process;whiteSpace=wrap;html=1;backgroundOutline=1;fontStyle=1" vertex="1" parent="1">
          <mxGeometry x="140" y="880" width="120" height="60" as="geometry" />
        </mxCell>
        <mxCell id="p4MyVl_19oYztBwYnWX8-17" value="" style="endArrow=classic;html=1;exitX=0.5;exitY=1;exitDx=0;exitDy=0;entryX=0.5;entryY=0;entryDx=0;entryDy=0;" edge="1" parent="1" source="p4MyVl_19oYztBwYnWX8-10" target="p4MyVl_19oYztBwYnWX8-16">
          <mxGeometry width="50" height="50" relative="1" as="geometry">
            <mxPoint x="400" y="840" as="sourcePoint" />
            <mxPoint x="450" y="790" as="targetPoint" />
          </mxGeometry>
        </mxCell>
        <mxCell id="p4MyVl_19oYztBwYnWX8-18" value="Log out/close app" style="rounded=1;whiteSpace=wrap;html=1;fontStyle=1" vertex="1" parent="1">
          <mxGeometry x="140" y="1030" width="120" height="60" as="geometry" />
        </mxCell>
        <mxCell id="p4MyVl_19oYztBwYnWX8-19" value="" style="endArrow=classic;html=1;exitX=0.5;exitY=1;exitDx=0;exitDy=0;entryX=0.5;entryY=0;entryDx=0;entryDy=0;" edge="1" parent="1" source="p4MyVl_19oYztBwYnWX8-16" target="p4MyVl_19oYztBwYnWX8-18">
          <mxGeometry width="50" height="50" relative="1" as="geometry">
            <mxPoint x="400" y="1140" as="sourcePoint" />
            <mxPoint x="450" y="1090" as="targetPoint" />
          </mxGeometry>
        </mxCell>
      </root>
    </mxGraphModel>
  </diagram>
</mxfile>
